Normalized EMG Linear Envelopes
nRows=125
nColumns=4

endheader
time	 med_gas_r	  soleus_r	 tib_ant_r	
2.9375	  0.010219	  0.024077	  0.004960	
3	  0.010226	  0.025190	  0.004984	
3.0625	  0.010609	  0.025021	  0.005180	
3.125	  0.011219	  0.024305	  0.005563	
3.1875	  0.011549	  0.023248	  0.005923	
3.25	  0.011516	  0.022386	  0.006026	
3.3125	  0.011318	  0.021764	  0.006082	
3.375	  0.011073	  0.021456	  0.006287	
3.4375	  0.010994	  0.021784	  0.006527	
3.5	  0.011236	  0.022281	  0.006613	
3.5625	  0.011905	  0.022884	  0.006480	
3.625	  0.012724	  0.023800	  0.006122	
3.6875	  0.013085	  0.024574	  0.005776	
3.75	  0.012790	  0.024397	  0.005696	
3.8125	  0.011785	  0.023396	  0.005793	
3.875	  0.010851	  0.021783	  0.005990	
3.9375	  0.010358	  0.019770	  0.006043	
4	  0.010147	  0.018434	  0.005824	
4.0625	  0.009973	  0.018016	  0.005444	
4.125	  0.010069	  0.018832	  0.005157	
4.1875	  0.010624	  0.020968	  0.005171	
4.25	  0.011273	  0.023799	  0.005449	
4.3125	  0.011439	  0.025353	  0.005704	
4.375	  0.010876	  0.024594	  0.005848	
4.4375	  0.010127	  0.023201	  0.005987	
4.5	  0.009917	  0.022376	  0.006092	
4.5625	  0.010501	  0.021910	  0.006131	
4.625	  0.011285	  0.021284	  0.006049	
4.6875	  0.011401	  0.019765	  0.005816	
4.75	  0.010650	  0.017672	  0.005407	
4.8125	  0.009651	  0.015945	  0.005130	
4.875	  0.009325	  0.016297	  0.005743	
4.9375	  0.010731	  0.022705	  0.008868	
5	  0.015232	  0.041857	  0.016681	
5.0625	  0.023304	  0.080012	  0.029814	
5.125	  0.033412	  0.134923	  0.044304	
5.1875	  0.042406	  0.190487	  0.053396	
5.25	  0.050367	  0.233499	  0.057716	
5.3125	  0.059728	  0.271721	  0.061103	
5.375	  0.072618	  0.324818	  0.066264	
5.4375	  0.088798	  0.390242	  0.072648	
5.5	  0.105862	  0.443041	  0.078773	
5.5625	  0.118947	  0.465595	  0.082163	
5.625	  0.128178	  0.464628	  0.081714	
5.6875	  0.131642	  0.459021	  0.080996	
5.75	  0.130061	  0.454938	  0.084924	
5.8125	  0.128370	  0.463001	  0.093079	
5.875	  0.131239	  0.490931	  0.102809	
5.9375	  0.136338	  0.521065	  0.111412	
6	  0.145470	  0.541718	  0.118841	
6.0625	  0.161620	  0.559256	  0.124655	
6.125	  0.185238	  0.570672	  0.129837	
6.1875	  0.208957	  0.577383	  0.133494	
6.25	  0.231563	  0.589487	  0.135942	
6.3125	  0.254255	  0.609079	  0.137866	
6.375	  0.275774	  0.626214	  0.140149	
6.4375	  0.290116	  0.637930	  0.143550	
6.5	  0.292118	  0.633059	  0.146318	
6.5625	  0.285609	  0.599510	  0.145912	
6.625	  0.276225	  0.560640	  0.143006	
6.6875	  0.260137	  0.542238	  0.139975	
6.75	  0.242435	  0.544494	  0.136627	
6.8125	  0.234908	  0.546518	  0.136994	
6.875	  0.245437	  0.543312	  0.142749	
6.9375	  0.266800	  0.543931	  0.150942	
7	  0.290468	  0.551993	  0.157710	
7.0625	  0.298912	  0.562516	  0.158813	
7.125	  0.285929	  0.567782	  0.150628	
7.1875	  0.262283	  0.558655	  0.138437	
7.25	  0.239253	  0.532197	  0.127963	
7.3125	  0.224761	  0.508682	  0.120965	
7.375	  0.217675	  0.502182	  0.119953	
7.4375	  0.210994	  0.514084	  0.123499	
7.5	  0.197731	  0.533759	  0.126408	
7.5625	  0.182990	  0.541121	  0.125258	
7.625	  0.179078	  0.528421	  0.122636	
7.6875	  0.191974	  0.510080	  0.122629	
7.75	  0.215368	  0.497031	  0.120876	
7.8125	  0.242204	  0.499632	  0.116483	
7.875	  0.269140	  0.522518	  0.114537	
7.9375	  0.296075	  0.564777	  0.116684	
8	  0.317414	  0.607346	  0.122255	
8.0625	  0.321501	  0.620933	  0.128205	
8.125	  0.308448	  0.592623	  0.131424	
8.1875	  0.293690	  0.539676	  0.131809	
8.25	  0.293646	  0.500430	  0.131025	
8.3125	  0.307167	  0.484136	  0.128474	
8.375	  0.323053	  0.477266	  0.127030	
8.4375	  0.337230	  0.471586	  0.127728	
8.5	  0.338552	  0.460242	  0.132747	
8.5625	  0.324607	  0.449035	  0.141211	
8.625	  0.302691	  0.446878	  0.149751	
8.6875	  0.288726	  0.454601	  0.157478	
8.75	  0.297351	  0.478177	  0.163239	
8.8125	  0.331047	  0.510979	  0.166092	
8.875	  0.372869	  0.538717	  0.167324	
8.9375	  0.407361	  0.561902	  0.167470	
9	  0.426771	  0.582896	  0.171339	
9.0625	  0.433347	  0.597699	  0.181023	
9.125	  0.441444	  0.606741	  0.191683	
9.1875	  0.453390	  0.625067	  0.195496	
9.25	  0.463556	  0.649151	  0.190467	
9.3125	  0.467373	  0.662830	  0.178949	
9.375	  0.458616	  0.658393	  0.168296	
9.4375	  0.429762	  0.638935	  0.158100	
9.5	  0.393560	  0.622314	  0.146397	
9.5625	  0.364265	  0.600849	  0.135375	
9.625	  0.340356	  0.557260	  0.126234	
9.6875	  0.311754	  0.496422	  0.118612	
9.75	  0.267903	  0.415324	  0.107825	
9.8125	  0.211076	  0.325671	  0.091523	
9.875	  0.146348	  0.229636	  0.069701	
9.9375	  0.086029	  0.134662	  0.046070	
10	  0.041399	  0.063971	  0.025836	
10.0625	  0.016192	  0.024945	  0.012726	
10.125	  0.005804	  0.010153	  0.006187	
10.1875	  0.003973	  0.008911	  0.004031	
10.25	  0.005648	  0.013300	  0.003950	
10.3125	  0.007780	  0.018493	  0.004362	
10.375	  0.009545	  0.021953	  0.004786	
10.4375	  0.010771	  0.023824	  0.005120	
10.5	  0.011107	  0.024882	  0.005299	
10.5625	  0.010814	  0.025262	  0.005296	
10.625	  0.010505	  0.025846	  0.005204	
10.6875	  0.010433	  0.026613	  0.005224	
